<svg width="544" height="122" viewBox="0 0 544 122" fill="none" xmlns="http://www.w3.org/2000/svg">
<path d="M88.4512 115.541V58.1047H103.485V65.7338H103.654C104.797 63.772 106.169 62.1372 107.769 60.8294C109.37 59.5215 111.161 58.5407 113.142 57.8867C115.2 57.1602 117.409 56.7969 119.772 56.7969C123.43 56.7969 126.478 57.5235 128.917 58.9766C131.355 60.4298 133.184 62.6822 134.403 65.7338H135.089C136.232 63.772 137.604 62.1372 139.204 60.8294C140.805 59.5215 142.634 58.5407 144.691 57.8867C146.749 57.1602 148.997 56.7969 151.435 56.7969C154.941 56.7969 157.913 57.4508 160.352 58.7586C162.866 59.9938 164.733 61.9556 165.953 64.6439C167.248 67.3322 167.896 70.7472 167.896 74.8886V115.541H152.007V78.1582C152.007 76.7051 151.855 75.4699 151.55 74.4527C151.245 73.4355 150.788 72.5999 150.178 71.946C149.645 71.2194 148.921 70.7108 148.006 70.4202C147.168 70.0569 146.177 69.8753 145.034 69.8753C143.281 69.8753 141.719 70.3839 140.347 71.4011C139.052 72.4183 138.023 73.8351 137.261 75.6516C136.499 77.468 136.118 79.6114 136.118 82.0818V115.541H120.229V78.1582C120.229 76.7051 120.077 75.4699 119.772 74.4527C119.543 73.4355 119.124 72.5999 118.514 71.946C117.905 71.2194 117.143 70.7108 116.228 70.4202C115.39 70.0569 114.437 69.8753 113.371 69.8753C111.542 69.8753 109.941 70.3839 108.57 71.4011C107.274 72.4183 106.245 73.8351 105.483 75.6516C104.721 77.468 104.34 79.6114 104.34 82.0818V115.541H88.4512Z" fill="white"/>
<path d="M0 115.541L25.5196 31.5332L51.9971 31.5332L77.5265 115.541H57.5946L52.8257 96.4821H23.9672L19.1982 115.541H0ZM28.1248 81.5637H48.6681L43.21 57.9608C42.9654 57.2271 42.6801 56.2489 42.354 55.026C42.0279 53.8032 41.6611 52.4989 41.2535 51.113C40.9274 49.7272 40.5605 48.3413 40.1529 46.9555C39.8268 45.4881 39.5007 44.1837 39.1747 43.0424H38.441C38.1149 44.4283 37.7073 46.0995 37.2182 48.056C36.729 49.931 36.2399 51.7652 35.7508 53.5587C35.2616 55.2706 34.854 56.738 34.528 57.9608L28.1248 81.5637Z" fill="white"/>
<path d="M226.574 31.5332H208.852V46.2618H226.574V100.812H208.852V115.541H226.574H245.405H263.167V100.812H245.405V46.2618H263.167V31.5332H245.405H226.574Z" fill="white"/>
<path d="M384.783 120.46V56.2751H403.747L405.084 65.0276H405.814C407.191 62.7584 408.812 60.8539 410.676 59.3141C412.54 57.7743 414.647 56.6397 416.997 55.9104C419.429 55.181 421.982 54.8163 424.656 54.8163C429.113 54.8163 432.72 55.6672 435.475 57.3691C438.311 59.071 440.378 61.5022 441.675 64.6629C442.971 67.8235 443.62 71.673 443.62 76.2113V120.46H421.131V80.3445C421.131 79.2909 420.969 78.3184 420.644 77.427C420.401 76.5355 420.037 75.7656 419.55 75.1173C419.064 74.4689 418.416 73.9827 417.605 73.6585C416.876 73.2533 415.984 73.0507 414.931 73.0507C413.31 73.0507 411.932 73.537 410.798 74.5095C409.663 75.4009 408.772 76.6165 408.123 78.1563C407.556 79.6151 407.272 81.2764 407.272 83.1404V120.46H384.783Z" fill="#282828"/>
<path d="M334.278 121.919C325.768 121.919 318.556 120.379 312.64 117.3C306.805 114.139 302.347 109.357 299.268 102.955C296.188 96.5528 294.648 88.4486 294.648 78.6426C294.648 68.8365 296.188 60.7324 299.268 54.3301C302.347 47.9278 306.805 43.1868 312.64 40.1072C318.556 36.9466 325.768 35.3663 334.278 35.3663C342.787 35.3663 350 36.9466 355.916 40.1072C361.832 43.1868 366.289 47.9278 369.288 54.3301C372.368 60.7324 373.907 68.8365 373.907 78.6426C373.907 88.4486 372.368 96.5528 369.288 102.955C366.289 109.357 361.832 114.139 355.916 117.3C350 120.379 342.787 121.919 334.278 121.919ZM334.278 102.226C336.709 102.226 338.816 101.821 340.599 101.01C342.382 100.119 343.841 98.903 344.975 97.3632C346.11 95.7424 346.92 93.8379 347.407 91.6498C347.893 89.4617 348.136 87.0304 348.136 84.356V72.9291C348.136 70.2548 347.893 67.8235 347.407 65.6354C346.92 63.4473 346.11 61.5833 344.975 60.0435C343.841 58.4227 342.382 57.207 340.599 56.3966C338.816 55.5052 336.709 55.0594 334.278 55.0594C331.766 55.0594 329.618 55.5052 327.835 56.3966C326.133 57.207 324.715 58.4227 323.58 60.0435C322.527 61.5833 321.716 63.4473 321.149 65.6354C320.663 67.8235 320.42 70.2548 320.42 72.9291V84.356C320.42 87.0304 320.663 89.4617 321.149 91.6498C321.716 93.8379 322.527 95.7424 323.58 97.3632C324.715 98.903 326.133 100.119 327.835 101.01C329.618 101.821 331.766 102.226 334.278 102.226Z" fill="#282828"/>
<path d="M493.757 59.1505C493.604 58.1875 493.742 58.6823 493.345 57.4762C492.981 56.3674 492.388 55.0961 491.503 53.9208C489.918 51.8181 487.059 49.5117 481.17 49.5117C475.48 49.5117 472.443 51.8778 470.565 54.6107C468.434 57.7119 467.677 61.5719 467.677 63.7518H453.531C453.531 59.29 454.856 52.4937 458.907 46.599C463.212 40.3359 470.458 35.3663 481.17 35.3663C491.684 35.3663 498.654 39.908 502.799 45.4069C506.619 50.4757 507.902 56.159 507.902 59.1505C507.902 60.3487 508.16 64.6545 506.38 69.398C504.502 74.4014 500.624 79.3967 493.507 83.1977C489.351 85.4176 488.173 87.4139 487.716 88.5904C487.12 90.127 487.175 91.5152 487.175 94.2964H473.03C473.03 92.4347 472.767 88.0138 474.529 83.4724C476.432 78.5709 480.291 74.2202 486.843 70.7205C491.075 68.4605 492.524 66.0595 493.136 64.4279C493.846 62.5365 493.757 60.9685 493.757 59.1505Z" fill="#282828"/>
<path d="M490.71 110.552C490.71 116.069 486.238 120.541 480.721 120.541C475.204 120.541 470.732 116.069 470.732 110.552C470.732 105.036 475.204 100.563 480.721 100.563C486.238 100.563 490.71 105.036 490.71 110.552Z" fill="#282828"/>
<path d="M520.596 19.9447C537.742 35.5643 540.751 57.3891 540.109 66.8483L524.983 65.8224C525.417 59.428 523.109 42.7433 510.386 31.1524C497.722 19.6155 481.638 19.43 475.78 20.6436L472.704 5.79786C481.9 3.89234 503.391 4.27128 520.596 19.9447Z" fill="#282828"/>
<path d="M337.764 30.9814C346.198 30.9815 353.305 32.5477 359.111 35.6494L359.117 35.6523C364.906 38.6657 369.271 43.3031 372.216 49.5908L372.219 49.5967C375.246 55.8904 376.777 63.8958 376.777 73.6426C376.777 83.3894 375.246 91.3947 372.219 97.6885L372.217 97.6943C369.271 103.983 364.902 108.662 359.109 111.757C353.303 114.777 346.197 116.304 337.764 116.304C329.59 116.304 322.662 114.871 316.957 112.033L316.409 111.754C310.701 108.659 306.334 103.98 303.308 97.6885C300.28 91.3947 298.749 83.3894 298.749 73.6426C298.749 63.8958 300.28 55.8904 303.308 49.5967C306.335 43.3034 310.703 38.6647 316.412 35.6514L316.415 35.6494C322.221 32.5476 329.329 30.9814 337.764 30.9814ZM484.206 96.1787C489.383 96.1787 493.58 100.375 493.58 105.552C493.58 110.729 489.383 114.926 484.206 114.926C479.029 114.926 474.833 110.729 474.833 105.552C474.833 100.375 479.029 96.1788 484.206 96.1787ZM428.142 50.4316C432.526 50.4317 436.009 51.2694 438.637 52.8926L438.644 52.8965C441.362 54.5278 443.343 56.8542 444.591 59.8965C445.849 62.963 446.49 66.728 446.49 71.2109V114.845H425.231V75.3447C425.231 74.3672 425.099 73.4452 424.831 72.583L424.708 72.2168C424.447 71.281 424.057 70.4543 423.527 69.748C422.975 69.0122 422.244 68.4654 421.354 68.1025C420.519 67.6483 419.531 67.4355 418.416 67.4355C416.771 67.4356 415.33 67.9015 414.121 68.8467L413.903 69.0254C412.675 69.9909 411.724 71.2973 411.042 72.918L411.039 72.9258L411.035 72.9336C410.436 74.4755 410.143 76.2148 410.143 78.1406V114.845H388.884V51.8896H406.705L407.962 60.1201L408.041 60.6426H409.646L409.825 60.3467C411.171 58.1307 412.748 56.2799 414.554 54.7881C416.355 53.3004 418.39 52.2041 420.665 51.498L420.664 51.4971C423.034 50.7867 425.526 50.4316 428.142 50.4316ZM337.764 49.4443C335.342 49.4443 333.215 49.8468 331.403 50.6748L331.045 50.8467C329.247 51.7051 327.751 52.9905 326.562 54.6904L326.559 54.6963C325.457 56.3058 324.621 58.2385 324.039 60.4814L324.036 60.4912L324.034 60.502C323.537 62.7412 323.29 65.218 323.29 67.9287V79.3564C323.29 82.0672 323.537 84.5439 324.034 86.7832L324.036 86.7939L324.039 86.8037C324.62 89.0453 325.455 91.0134 326.55 92.6982L326.56 92.7139L326.57 92.7285C327.76 94.3437 329.251 95.6202 331.035 96.5547L331.05 96.5625L331.065 96.5703C332.947 97.4258 335.187 97.8408 337.764 97.8408C340.262 97.8408 342.459 97.4246 344.339 96.5703L344.35 96.5654L344.359 96.5605C346.225 95.6275 347.761 94.3498 348.956 92.7285L348.96 92.7217L348.965 92.7158C350.151 91.0208 350.991 89.0395 351.492 86.7832C351.99 84.5439 352.236 82.0672 352.236 79.3564V67.9287C352.236 65.218 351.99 62.7412 351.492 60.502C351.022 58.3856 350.253 56.5428 349.176 54.9863L348.956 54.6787C347.835 53.0815 346.411 51.8532 344.688 51.002L344.339 50.8369C342.458 49.9013 340.261 49.4444 337.764 49.4443ZM476.918 1.28418C486.292 -0.452067 507.014 0.228701 523.667 15.3994C540.27 30.5249 543.477 51.55 543.014 61.1914L529.113 60.249C529.373 53.3346 526.8 37.0992 514.285 25.6982C501.847 14.3672 486.171 13.823 479.745 14.9268L476.918 1.28418ZM497.857 54.1016L497.85 54.0537C497.813 53.8202 497.793 53.6758 497.778 53.5684C497.764 53.4635 497.752 53.3706 497.728 53.2656C497.685 53.0824 497.603 52.8545 497.415 52.2842C497.033 51.1234 496.413 49.7891 495.479 48.5508C493.783 46.3001 490.744 43.8965 484.655 43.8965C481.722 43.8965 479.436 44.5077 477.628 45.4971C475.821 46.4861 474.525 47.8354 473.544 49.2627C471.517 52.2119 470.692 55.8017 470.566 58.1367H457.642C457.758 53.7787 459.114 47.4553 462.899 41.9473C467.098 35.8373 474.162 30.9815 484.655 30.9814C494.968 30.9815 501.76 35.4259 505.793 40.7773C509.53 45.7357 510.772 51.2878 510.772 54.1504C510.772 55.3717 511.023 59.5611 509.289 64.1816C507.466 69.0382 503.694 73.9212 496.703 77.6553C492.442 79.9312 491.147 82.0304 490.628 83.3682C490.03 84.9082 490.041 86.3285 490.046 88.6816H477.124C477.098 86.5694 477.041 82.681 478.588 78.6953C480.427 73.9562 484.169 69.707 490.618 66.2627C494.975 63.9356 496.53 61.4216 497.197 59.6436C497.954 57.6261 497.857 55.9333 497.857 54.1504V54.1016Z" fill="#B8FF01" stroke="#282828" stroke-width="1.23003"/>
</svg>
