<svg width="169" height="226" viewBox="0 0 169 226" fill="none" xmlns="http://www.w3.org/2000/svg">
<path d="M75.1489 110.504C74.8633 108.705 75.1209 109.629 74.38 107.376C73.6989 105.305 72.5919 102.93 70.9371 100.734C67.9765 96.8056 62.6349 92.4969 51.6343 92.4968C41.0043 92.4968 35.3309 96.9171 31.8222 102.023C27.8405 107.816 26.4263 115.027 26.4262 119.1H0C1.07316e-05 110.765 2.4753 98.0677 10.0434 87.0554C18.0846 75.3548 31.622 66.0706 51.6343 66.0706C71.2756 66.0707 84.2977 74.5553 92.0403 84.8284C99.1771 94.2977 101.575 104.915 101.575 110.504C101.575 112.742 102.056 120.786 98.7304 129.648C95.2224 138.995 87.9777 148.327 74.6821 155.428C66.9172 159.576 64.7169 163.305 63.8637 165.503C62.7496 168.374 62.8527 170.967 62.8527 176.163H36.4264C36.4264 172.685 35.9351 164.426 39.228 155.942C42.782 146.785 49.991 138.657 62.2326 132.119C70.1377 127.897 72.8451 123.411 73.9891 120.363C75.3152 116.83 75.1489 113.9 75.1489 110.504Z" fill="black"/>
<path d="M69.4558 206.532C69.4558 216.838 61.1011 225.192 50.7951 225.192C40.4891 225.192 32.1344 216.838 32.1344 206.532C32.1344 196.226 40.4891 187.871 50.7951 187.871C61.1011 187.871 69.4558 196.226 69.4558 206.532Z" fill="black"/>
<path d="M125.289 37.2603C157.32 66.4405 162.942 107.213 161.744 124.885L133.485 122.968C134.295 111.022 129.984 79.8522 106.215 58.1984C82.5555 36.6452 52.5076 36.2987 41.5649 38.566L35.8179 10.8314C52.9984 7.2715 93.1471 7.97943 125.289 37.2603Z" fill="black"/>
<path d="M57.3057 179.679C66.977 179.679 74.8172 187.519 74.8174 197.19C74.8174 206.862 66.9771 214.702 57.3057 214.702C47.6343 214.702 39.7939 206.862 39.7939 197.19C39.7942 187.519 47.6344 179.679 57.3057 179.679ZM43.6895 2.39551C61.202 -0.848079 99.9155 0.426904 131.026 28.7686C162.045 57.0265 168.04 96.3071 167.173 114.318L141.201 112.558C141.688 99.641 136.88 69.3076 113.499 48.0078C90.2623 26.8395 60.9758 25.8248 48.9717 27.8867L43.6895 2.39551ZM82.8086 101.072L82.7939 100.983C82.7246 100.547 82.6886 100.277 82.6611 100.076C82.6343 99.8799 82.611 99.7062 82.5654 99.5098C82.486 99.1674 82.3327 98.742 81.9824 97.6768C81.2692 95.5079 80.1088 93.0147 78.3652 90.7012C75.2953 86.628 69.8728 82.288 59.1953 82.0205L58.1455 82.0068C52.666 82.0068 48.3945 83.1476 45.0166 84.9961C41.6399 86.8439 39.2183 89.3647 37.3857 92.0312C33.5993 97.5411 32.0559 104.248 31.8213 108.61H7.67676C7.89465 100.469 10.4291 88.6555 17.501 78.3652C25.3455 66.9507 38.5419 57.8789 58.1455 57.8789C77.4105 57.8791 90.0989 66.1813 97.6338 76.1787C104.615 85.442 106.937 95.8152 106.937 101.163C106.937 103.445 107.405 111.271 104.165 119.903C100.76 128.976 93.7128 138.098 80.6514 145.074C72.691 149.326 70.2739 153.247 69.3037 155.746C68.187 158.623 68.2055 161.277 68.2148 165.673H44.0752C44.0272 161.726 43.9197 154.462 46.8096 147.017C50.2459 138.163 57.2367 130.226 69.2842 123.791C77.424 119.444 80.3285 114.747 81.5752 111.426C82.9897 107.657 82.8086 104.494 82.8086 101.163V101.072Z" fill="#B8FF01" stroke="black" stroke-width="2.29792"/>
</svg>
